<svg id="typo_cond" data-name="typo cond" xmlns="http://www.w3.org/2000/svg" viewBox="0 0 151.29635 42.5197">
  <defs>
    <style>
      .cls-1 {
        fill: #868681;
        stroke: #868681;
        stroke-width: 0.5px;
      }

      .cls-1, .cls-3 {
        stroke-miterlimit: 10;
      }

      .cls-2 {
        fill: #7eb624;
      }

      .cls-3 {
        fill: #fff;
        stroke: #fff;
        stroke-width: 1.25px;
      }
    </style>
  </defs>
  <title>Print-Server</title>
  <g>
    <path class="cls-1" d="M58.55518,17.77377a5.29488,5.29488,0,0,1-1.38965,4.05273,5.84016,5.84016,0,0,1-4.11524,1.29444H51.65381v7.373H50.3374V12.64682H53.023a6.03814,6.03814,0,0,1,4.20312,1.23339A5.08069,5.08069,0,0,1,58.55518,17.77377ZM51.65381,22.0223h1.31543a4.46348,4.46348,0,0,0,3.27637-.98974,4.55156,4.55156,0,0,0,.96679-3.25879,4.08563,4.08563,0,0,0-1-3.09473,4.41556,4.41556,0,0,0-3.0957-.93359H51.65381Z" transform="translate(0 0.00016)"/>
    <path class="cls-1" d="M65.45654,16.99252a4.5674,4.5674,0,0,1,1.27637.1709l-.30957,1.16015a2.76131,2.76131,0,0,0-.99316-.18359,1.86665,1.86665,0,0,0-1.376.68945,4.77572,4.77572,0,0,0-1.001,1.92285,9.64818,9.64818,0,0,0-.3623,2.72217V30.494H61.41553V17.24935H62.4624l.13477,2.31836h.09375Q63.71191,16.99252,65.45654,16.99252Z" transform="translate(0 0.00016)"/>
    <path class="cls-1" d="M68.73291,13.57455a1.316,1.316,0,0,1,.249-.85449.78491.78491,0,0,1,.6377-.30469.67257.67257,0,0,1,.57715.30469,1.46416,1.46416,0,0,1,.21484.85449,1.44482,1.44482,0,0,1-.21484.83594.66787.66787,0,0,1-.57715.31152.7777.7777,0,0,1-.6377-.31152A1.29966,1.29966,0,0,1,68.73291,13.57455ZM70.19678,30.494H68.92139V17.24935h1.27539Z" transform="translate(0 0.00016)"/>
    <path class="cls-1" d="M80.67041,30.494V21.36264q0-3.2959-2.14844-3.2959a2.60727,2.60727,0,0,0-2.39648,1.2334,7.73135,7.73135,0,0,0-.75879,3.91845V30.494H74.09131V17.24935h1.07422l.10742,1.84278H75.394a3.51083,3.51083,0,0,1,1.31543-1.54981,3.34981,3.34981,0,0,1,1.83985-.5498,3.09206,3.09206,0,0,1,2.53808,1.03125,5.22274,5.22274,0,0,1,.84571,3.31445V30.494Z" transform="translate(0 0.00016)"/>
    <path class="cls-1" d="M88.4458,29.66391a3.42274,3.42274,0,0,0,1.04688-.14649V30.494a4.003,4.003,0,0,1-1.51661.24414q-2.25585,0-2.25586-3.06445V18.27474h-1.3164v-.68359l1.28906-.3418.417-3.15039h.88575v3.15039h2.30957v1.02539H86.99561v9.06983a3.60891,3.60891,0,0,0,.32226,1.831A1.25008,1.25008,0,0,0,88.4458,29.66391Z" transform="translate(0 0.00016)"/>
    <path class="cls-1" d="M104.70654,25.8182a4.85136,4.85136,0,0,1-1.34277,3.5586,4.58625,4.58625,0,0,1-3.41113,1.36132,9.532,9.532,0,0,1-3.77344-.623v-1.293a6.82443,6.82443,0,0,0,1.73242.56055,10.33464,10.33464,0,0,0,2.041.208,3.22532,3.22532,0,0,0,2.4707-1.03808,3.7143,3.7143,0,0,0,.9668-2.63672,3.68373,3.68373,0,0,0-.68457-2.34375,7.04713,7.04713,0,0,0-2.61817-1.73291,9.73525,9.73525,0,0,1-2.26953-1.34961,4.0748,4.0748,0,0,1-1.11426-1.51953,5.35668,5.35668,0,0,1-.3623-2.0752,4.612,4.612,0,0,1,.58984-2.34375,4.1,4.1,0,0,1,1.65235-1.59277,4.83927,4.83927,0,0,1,2.32226-.56836,8.62178,8.62178,0,0,1,2.0752.23242,7.33371,7.33371,0,0,1,1.46972.5l-.50976,1.14844a7.09372,7.09372,0,0,0-3.03516-.69629A3.09619,3.09619,0,0,0,97.64307,16.846a3.66666,3.66666,0,0,0,.6582,2.33106,7.23952,7.23952,0,0,0,2.57812,1.72168,7.40645,7.40645,0,0,1,2.90723,2.05713A4.51029,4.51029,0,0,1,104.70654,25.8182Z" transform="translate(0 0.00016)"/>
    <path class="cls-1" d="M111.97119,30.73812A4.06372,4.06372,0,0,1,108.41943,28.95a8.64692,8.64692,0,0,1-1.24218-4.98731,9.9245,9.9245,0,0,1,1.10742-5.18213,3.54008,3.54008,0,0,1,3.18945-1.78808,3.27058,3.27058,0,0,1,2.86035,1.56836,7.52174,7.52174,0,0,1,1.04688,4.23v1.07422H108.48a8.68291,8.68291,0,0,0,.89941,4.334,2.8882,2.8882,0,0,0,2.64551,1.44043,6.1034,6.1034,0,0,0,2.88672-.81738v1.12305A5.8702,5.8702,0,0,1,111.97119,30.73812Zm-.57715-12.6958q-2.63232,0-2.88769,4.77393H114.106a7.075,7.075,0,0,0-.73145-3.48A2.215,2.215,0,0,0,111.394,18.04232Z" transform="translate(0 0.00016)"/>
    <path class="cls-1" d="M122.65869,16.99252a4.5674,4.5674,0,0,1,1.27637.1709l-.30957,1.16015a2.76133,2.76133,0,0,0-.99317-.18359,1.86665,1.86665,0,0,0-1.376.68945,4.77572,4.77572,0,0,0-1.001,1.92285,9.64818,9.64818,0,0,0-.3623,2.72217V30.494h-1.27539V17.24935h1.04687l.13477,2.31836h.09375Q120.91406,16.99252,122.65869,16.99252Z" transform="translate(0 0.00016)"/>
    <path class="cls-1" d="M127.74854,30.494,124.311,17.24935h1.28906l2.1748,8.52q.37647,1.478.72559,3.22266h.10742q.09375-.63428.26758-1.416.17578-.78075,2.64551-10.32666h1.28906L129.26514,30.494Z" transform="translate(0 0.00016)"/>
    <path class="cls-1" d="M139.02783,30.73812A4.06372,4.06372,0,0,1,135.47607,28.95a8.64692,8.64692,0,0,1-1.24218-4.98731,9.9245,9.9245,0,0,1,1.10742-5.18213,3.54008,3.54008,0,0,1,3.18945-1.78808,3.27058,3.27058,0,0,1,2.86035,1.56836,7.52166,7.52166,0,0,1,1.04688,4.23v1.07422h-6.90137a8.68279,8.68279,0,0,0,.89942,4.334,2.88818,2.88818,0,0,0,2.6455,1.44043,6.1034,6.1034,0,0,0,2.88672-.81738v1.12305A5.8702,5.8702,0,0,1,139.02783,30.73812Zm-.57715-12.6958q-2.63232,0-2.88769,4.77393h5.59961a7.075,7.075,0,0,0-.73145-3.48A2.215,2.215,0,0,0,138.45068,18.04232Z" transform="translate(0 0.00016)"/>
    <path class="cls-1" d="M149.71533,16.99252a4.5674,4.5674,0,0,1,1.27637.1709l-.30957,1.16015A2.76133,2.76133,0,0,0,149.689,18.14a1.86665,1.86665,0,0,0-1.376.68945,4.77572,4.77572,0,0,0-1.001,1.92285,9.64818,9.64818,0,0,0-.3623,2.72217V30.494h-1.27539V17.24935h1.04687l.13477,2.31836h.09375Q147.9707,16.99252,149.71533,16.99252Z" transform="translate(0 0.00016)"/>
  </g>
  <path class="cls-2" d="M35.4326-.00016H14.1723A7.08637,7.08637,0,0,0,7.08627,7.08h-.006v.00711A7.08628,7.08628,0,0,0,0,14.17324V35.433a7.08554,7.08554,0,0,0,7.08627,7.0865H28.3461a7.08588,7.08588,0,0,0,7.0865-7.0865,7.08752,7.08752,0,0,0,7.086-7.0902V7.08589a7.0864,7.0864,0,0,0-7.086-7.086" transform="translate(0 0.00016)"/>
  <g>
    <path class="cls-3" d="M14.06592,12.68148V24.72933q0,6.04395-4.75342,6.043A4.36608,4.36608,0,0,1,5.687,29.2098a7.0292,7.0292,0,0,1-1.249-4.48047V12.68148H5.76758V24.87582A5.77978,5.77978,0,0,0,6.6875,28.41a3.09428,3.09428,0,0,0,2.625,1.21484A2.95633,2.95633,0,0,0,11.87744,28.41,6.1185,6.1185,0,0,0,12.75,24.827V12.68148Z" transform="translate(0 0.00016)"/>
    <path class="cls-3" d="M23.74756,13.54818a3.98086,3.98086,0,0,0-3.5249,2.13037,11.2589,11.2589,0,0,0-1.30909,5.90235,13.57555,13.57555,0,0,0,.604,4.27148,6.17023,6.17023,0,0,0,1.73193,2.7959,3.87781,3.87781,0,0,0,2.61865.97656,6.31682,6.31682,0,0,0,2.63184-.501v1.09961a5.94525,5.94525,0,0,1-2.75244.54882,5.15173,5.15173,0,0,1-3.27-1.09863A6.9647,6.9647,0,0,1,18.30908,26.494a14.32055,14.32055,0,0,1-.76562-4.93847,11.74429,11.74429,0,0,1,1.67187-6.71338,5.24654,5.24654,0,0,1,4.5586-2.44141,6.29672,6.29672,0,0,1,3.14257.75684l-.60449,1.0498A4.98781,4.98781,0,0,0,23.74756,13.54818Z" transform="translate(0 0.00016)"/>
    <path class="cls-3" d="M38.31689,25.85238a4.8494,4.8494,0,0,1-1.34277,3.5586A4.58625,4.58625,0,0,1,33.563,30.7723a9.52775,9.52775,0,0,1-3.77295-.623v-1.293a6.81993,6.81993,0,0,0,1.73193.56054,10.334,10.334,0,0,0,2.041.208,3.22532,3.22532,0,0,0,2.4707-1.03808,3.7143,3.7143,0,0,0,.9668-2.63672,3.68079,3.68079,0,0,0-.68457-2.34375,7.04536,7.04536,0,0,0-2.61817-1.73242,9.72932,9.72932,0,0,1-2.26953-1.34961A4.07356,4.07356,0,0,1,30.314,19.00473a5.35465,5.35465,0,0,1-.36279-2.0752,4.6076,4.6076,0,0,1,.59082-2.34375A4.09275,4.09275,0,0,1,32.19385,12.993a4.83944,4.83944,0,0,1,2.32275-.56787,8.62726,8.62726,0,0,1,2.07471.23193,7.37815,7.37815,0,0,1,1.47021.50049L37.55127,14.305a7.107,7.107,0,0,0-3.03467-.6958,3.09692,3.09692,0,0,0-3.26318,3.27148,3.66906,3.66906,0,0,0,.6582,2.33154,7.23957,7.23957,0,0,0,2.57813,1.7212A7.40951,7.40951,0,0,1,37.397,22.99008,4.51309,4.51309,0,0,1,38.31689,25.85238Z" transform="translate(0 0.00016)"/>
  </g>
</svg>
